<svg xmlns="http://www.w3.org/2000/svg" width="512" height="580"
     viewBox="813.27 32.85 143.21 162.42" style="color:#F2E6D2" role="img" aria-label="cats — rest">
  <title>cats — rest</title>
  <!-- Traced from the reference artwork, not redrawn: marching squares at the
       half-way luminance with sub-pixel interpolation, simplified, then fitted
       with curvature-continuous splines. Each source stroke becomes a closed
       filled ribbon, so weights come from the artwork. Filled even-odd so the
       inside of every stroke loop drops out. Regenerate with
       scripts/icon/gen-trace; do not hand-edit the path data. -->
  <path d="M850.08,38.00 C850.46,38.33 850.78,38.71 851.23,39.00 C851.74,39.33 852.35,39.44 853.00,39.81 C853.89,40.32 855.00,41.21 856.00,41.91 L856.06,43.00 C854.70,43.11 853.34,43.16 852.00,43.32 C850.66,43.47 848.88,43.68 848.00,43.93 C847.54,44.07 847.40,44.24 847.00,44.37 C846.45,44.55 845.54,44.61 845.00,44.83 C844.59,44.99 844.46,45.20 844.00,45.41 C843.12,45.81 840.87,46.35 840.00,46.79 C839.54,47.02 839.34,47.29 839.00,47.46 C838.68,47.62 838.38,47.63 838.00,47.81 C837.44,48.08 836.77,48.49 836.02,49.00 C834.93,49.75 833.23,51.09 832.14,52.00 C831.31,52.70 830.68,53.24 830.00,53.93 C829.30,54.64 828.72,55.32 828.00,56.20 C827.08,57.32 825.95,58.69 825.00,60.14 C823.94,61.74 822.56,64.14 822.00,65.41 C821.71,66.07 821.71,66.54 821.49,67.00 C821.30,67.39 820.99,67.65 820.83,68.00 C820.68,68.32 820.66,68.67 820.52,69.00 C820.37,69.34 820.17,69.51 819.97,70.00 C819.52,71.14 818.85,74.85 818.42,76.00 C818.24,76.49 818.08,76.53 817.91,77.00 C817.59,77.94 817.19,80.16 817.00,81.44 C816.86,82.41 816.69,83.47 816.77,84.00 C816.81,84.25 816.86,84.38 817.00,84.54 C817.20,84.78 817.67,84.95 818.00,85.15 C820.00,84.24 822.83,82.59 824.00,82.43 C824.46,82.36 824.67,82.53 825.00,82.58 L825.21,83.00 C824.47,84.05 823.75,84.90 823.00,86.14 C822.01,87.77 820.71,90.36 819.96,92.00 C819.44,93.15 818.97,94.26 818.77,95.00 C818.65,95.41 818.72,95.62 818.61,96.00 C818.44,96.56 817.99,97.25 817.74,98.00 C817.44,98.89 817.23,99.87 817.00,101.00 C816.71,102.45 816.48,104.98 816.23,106.00 C816.11,106.47 815.99,106.52 815.89,107.00 C815.65,108.15 815.53,111.09 815.42,113.00 C815.33,114.74 815.25,116.09 815.27,118.00 C815.29,120.56 815.50,125.51 815.72,127.00 C815.80,127.51 815.78,127.72 815.97,128.00 C816.18,128.30 816.66,128.47 817.00,128.70 C817.33,128.55 817.67,128.52 818.00,128.24 C818.51,127.80 818.93,126.79 819.50,126.00 C820.17,125.06 821.02,123.89 821.81,123.00 C822.52,122.20 823.27,121.56 824.00,120.85 C824.09,120.90 824.19,120.90 824.28,121.00 C824.43,121.18 824.60,121.57 824.66,122.00 C824.76,122.72 824.43,123.93 824.38,125.00 C824.33,126.24 824.33,127.48 824.38,129.00 C824.46,131.01 824.63,134.00 824.93,136.00 C825.16,137.53 825.51,138.91 825.84,140.00 C826.08,140.79 826.45,141.44 826.61,142.00 C826.72,142.38 826.69,142.62 826.80,143.00 C826.97,143.56 827.45,144.44 827.62,145.00 C827.74,145.38 827.70,145.68 827.82,146.00 C827.96,146.35 828.27,146.66 828.43,147.00 C828.59,147.33 828.62,147.68 828.79,148.00 C828.96,148.35 829.28,148.62 829.47,149.00 C829.69,149.43 829.79,149.99 830.00,150.47 C830.22,150.99 830.50,151.55 830.77,152.00 C831.01,152.38 831.31,152.65 831.50,153.00 C831.69,153.32 831.71,153.59 831.92,154.00 C832.30,154.74 833.22,156.28 833.74,157.00 C834.06,157.44 834.30,157.60 834.60,158.00 C835.00,158.54 835.36,159.32 835.87,160.00 C836.47,160.80 837.12,161.51 838.00,162.45 C839.30,163.85 841.95,166.57 843.00,167.49 C843.44,167.88 843.65,168.12 844.00,168.25 C844.32,168.37 844.77,168.41 845.00,168.32 C845.16,168.27 845.24,168.21 845.33,168.00 C845.70,167.19 845.32,162.61 845.60,161.00 C845.75,160.12 846.10,159.56 846.22,159.00 C846.30,158.61 846.22,158.30 846.34,158.00 C846.47,157.69 846.78,157.44 847.00,157.16 C847.44,157.77 847.97,158.38 848.31,159.00 C848.61,159.56 848.65,160.02 849.00,160.69 C849.58,161.82 850.80,163.76 851.71,165.00 C852.47,166.03 853.21,166.85 854.00,167.70 C854.77,168.51 855.49,169.19 856.39,170.00 C857.45,170.97 859.14,172.52 860.00,173.09 C860.42,173.36 860.62,173.35 861.00,173.59 C861.57,173.95 862.04,174.50 863.00,175.21 C865.17,176.81 871.98,181.07 874.00,182.60 C874.82,183.22 875.11,183.60 875.65,184.00 C876.11,184.34 876.47,184.47 877.00,184.88 C877.90,185.58 879.39,186.90 880.41,188.00 C881.38,189.05 882.16,190.38 883.00,191.32 C883.68,192.08 884.33,192.62 885.00,193.28 C885.44,192.85 885.90,192.50 886.33,192.00 C886.83,191.43 887.29,190.58 887.77,190.00 C888.18,189.51 888.54,189.19 889.00,188.72 C889.58,188.11 890.32,187.29 891.00,186.65 C891.65,186.05 892.26,185.58 893.00,184.98 C893.89,184.26 894.91,183.44 896.00,182.66 C897.22,181.79 898.91,180.82 900.00,180.06 C900.79,179.50 901.43,178.89 902.00,178.55 C902.38,178.32 902.63,178.32 903.00,178.09 C903.57,177.73 904.43,176.84 905.00,176.50 C905.37,176.28 905.56,176.34 906.00,176.09 C907.05,175.50 909.59,173.55 911.00,172.42 C912.09,171.56 912.86,170.90 913.81,170.00 C914.86,168.99 916.20,167.58 917.00,166.64 C917.53,166.01 917.80,165.64 918.25,165.00 C918.84,164.16 919.82,162.75 920.19,162.00 C920.40,161.59 920.39,161.32 920.56,161.00 C920.75,160.65 921.11,160.35 921.30,160.00 C921.47,159.68 921.49,159.37 921.69,159.00 C921.98,158.45 922.56,157.73 923.00,157.10 C923.17,157.40 923.36,157.57 923.52,158.00 C923.84,158.84 924.19,160.76 924.36,162.00 C924.50,163.07 924.54,164.10 924.55,165.00 C924.55,165.73 924.42,166.45 924.45,167.00 C924.48,167.39 924.49,167.77 924.62,168.00 C924.71,168.17 924.87,168.23 925.00,168.35 C925.33,168.27 925.68,168.25 926.00,168.11 C926.35,167.96 926.59,167.75 927.00,167.42 C927.75,166.81 929.08,165.50 930.00,164.55 C930.84,163.69 931.55,162.92 932.34,162.00 C933.21,160.99 934.10,159.94 935.00,158.73 C936.04,157.32 937.65,155.01 938.15,154.00 C938.37,153.56 938.33,153.32 938.50,153.00 C938.68,152.65 939.04,152.35 939.23,152.00 C939.40,151.68 939.44,151.33 939.60,151.00 C939.77,150.66 939.97,150.50 940.23,150.00 C940.88,148.73 942.51,144.87 943.11,143.00 C943.49,141.81 943.58,140.73 943.81,140.00 C943.94,139.57 944.11,139.40 944.21,139.00 C944.36,138.46 944.35,137.66 944.50,137.00 C944.65,136.33 944.97,135.86 945.14,135.00 C945.42,133.55 945.53,131.08 945.57,129.00 C945.61,126.76 945.25,123.28 945.34,122.00 C945.37,121.51 945.36,121.23 945.50,121.00 C945.61,120.82 945.83,120.76 946.00,120.64 C946.11,120.76 946.18,120.82 946.34,121.00 C946.81,121.52 948.11,122.98 949.00,124.12 C950.00,125.40 951.18,127.75 952.00,128.32 C952.37,128.58 952.67,128.50 953.00,128.59 C953.27,128.40 953.64,128.26 953.82,128.00 C954.01,127.73 954.02,127.48 954.10,127.00 C954.29,125.85 954.39,123.20 954.46,121.00 C954.54,118.30 954.58,114.56 954.47,112.00 C954.39,110.09 954.25,108.45 954.04,107.00 C953.87,105.87 953.57,104.90 953.43,104.00 C953.32,103.27 953.36,102.66 953.20,102.00 C953.04,101.32 952.60,100.56 952.47,100.00 C952.37,99.62 952.44,99.45 952.35,99.00 C952.15,98.02 951.50,95.69 951.00,94.42 C950.62,93.47 950.21,92.92 949.79,92.00 C949.26,90.84 948.76,89.26 948.12,88.00 C947.50,86.78 946.65,85.45 946.00,84.54 C945.55,83.91 945.15,83.51 944.73,83.00 C944.82,82.88 944.86,82.73 945.00,82.65 C945.21,82.52 945.54,82.46 946.00,82.52 C947.17,82.69 950.00,84.25 952.00,85.11 C952.33,84.94 952.79,84.81 953.00,84.59 C953.16,84.42 953.24,84.23 953.29,84.00 C953.34,83.72 953.30,83.42 953.24,83.00 C953.13,82.26 952.65,80.90 952.49,80.00 C952.36,79.27 952.42,78.81 952.27,78.00 C952.04,76.70 951.40,74.28 951.00,73.00 C950.75,72.18 950.53,71.54 950.28,71.00 C950.09,70.60 949.89,70.42 949.71,70.00 C949.45,69.40 949.33,68.52 949.00,67.67 C948.57,66.57 947.74,64.83 947.25,64.00 C946.99,63.55 946.72,63.35 946.55,63.00 C946.39,62.68 946.43,62.44 946.22,62.00 C945.71,60.99 944.08,58.70 943.00,57.30 C942.06,56.08 941.07,54.94 940.15,54.00 C939.39,53.22 938.79,52.72 937.92,52.00 C936.81,51.08 935.11,49.76 934.00,49.00 C933.24,48.47 932.80,48.19 932.00,47.76 C930.91,47.16 929.12,46.24 928.00,45.84 C927.24,45.56 926.54,45.59 926.00,45.35 C925.59,45.18 925.35,44.82 925.00,44.69 C924.68,44.57 924.39,44.65 924.00,44.56 C923.44,44.42 922.88,44.07 922.00,43.86 C920.39,43.48 916.28,43.02 915.00,42.96 C914.52,42.94 914.33,42.99 914.00,43.00 L914.00,41.94 C914.67,41.46 915.25,40.98 916.00,40.50 C916.89,39.92 918.37,39.27 919.00,38.76 C919.34,38.49 919.46,38.25 919.69,38.00 C919.65,37.67 919.72,37.25 919.58,37.00 C919.46,36.79 919.27,36.70 919.00,36.55 C918.55,36.31 917.90,36.07 917.00,35.86 C915.24,35.46 911.21,35.01 909.00,34.90 C907.44,34.81 906.24,34.89 905.00,34.96 C903.93,35.03 903.07,35.15 902.00,35.28 C900.76,35.44 899.23,35.59 898.00,35.86 C896.92,36.10 895.89,36.42 895.00,36.74 C894.26,37.00 893.63,37.38 893.00,37.59 C892.47,37.78 892.08,37.78 891.48,38.00 C890.55,38.35 888.80,39.22 888.00,39.68 C887.55,39.94 887.34,40.18 887.00,40.37 C886.68,40.54 886.34,40.68 886.00,40.78 C885.67,40.88 885.33,40.99 885.00,40.96 C884.66,40.94 884.41,40.80 884.00,40.60 C883.26,40.25 882.28,39.43 881.00,38.83 C879.01,37.90 875.59,36.64 873.00,36.00 C870.66,35.42 867.78,35.18 866.14,35.00 C865.23,34.90 864.77,34.87 864.00,34.85 C863.08,34.83 861.73,34.87 861.00,34.90 C860.58,34.92 860.48,34.92 860.00,34.97 C858.72,35.09 854.61,35.48 853.00,35.83 C852.12,36.02 851.49,36.21 851.00,36.46 C850.67,36.62 850.41,36.75 850.25,37.00 C850.09,37.26 850.13,37.67 850.08,38.00 Z M856.20,39.00 C857.05,39.67 857.93,40.31 858.74,41.00 C859.53,41.67 860.51,42.32 861.00,43.07 C861.40,43.68 861.44,44.36 861.66,45.00 L861.00,45.66 C860.00,45.60 859.07,45.50 858.00,45.47 C856.76,45.44 855.23,45.37 854.00,45.51 C852.92,45.64 851.90,46.03 851.00,46.19 C850.27,46.32 849.77,46.28 849.00,46.44 C847.89,46.68 846.10,47.25 845.00,47.62 C844.21,47.88 843.54,48.12 843.00,48.38 C842.60,48.58 842.43,48.77 842.00,49.00 C841.28,49.39 839.98,49.81 839.00,50.37 C837.97,50.95 836.99,51.71 836.00,52.44 C834.99,53.19 833.90,54.01 833.00,54.81 C832.19,55.53 831.58,56.13 830.81,57.00 C829.82,58.11 828.63,59.56 827.64,61.00 C826.57,62.54 825.14,64.95 824.65,66.00 C824.44,66.45 824.46,66.67 824.31,67.00 C824.15,67.34 823.93,67.54 823.72,68.00 C823.31,68.88 822.76,70.90 822.32,72.00 C822.01,72.79 821.73,73.11 821.42,74.00 C820.88,75.61 820.32,78.67 819.76,81.00 L820.00,81.30 C820.33,81.24 820.58,81.24 821.00,81.13 C821.74,80.93 822.92,80.33 824.00,79.98 C825.23,79.58 827.11,79.06 828.00,78.91 C828.44,78.84 828.67,78.82 829.00,78.84 C829.33,78.85 829.67,78.94 830.00,78.99 L830.64,80.00 C830.47,80.33 830.40,80.56 830.11,81.00 C829.44,82.05 827.12,84.68 826.25,86.00 C825.72,86.79 825.48,87.46 825.12,88.00 C824.86,88.40 824.64,88.52 824.35,89.00 C823.75,90.01 822.66,92.98 822.13,94.00 C821.88,94.47 821.69,94.59 821.53,95.00 C821.31,95.54 821.25,96.34 821.05,97.00 C820.86,97.67 820.53,98.35 820.35,99.00 C820.19,99.60 820.16,100.25 820.00,100.78 C819.86,101.23 819.61,101.53 819.48,102.00 C819.32,102.58 819.35,103.34 819.21,104.00 C819.07,104.67 818.80,105.10 818.63,106.00 C818.31,107.77 818.13,111.32 818.02,114.00 C817.91,116.69 818.01,119.39 818.00,122.09 L819.00,122.63 C819.33,122.16 819.63,121.67 820.00,121.23 C820.37,120.79 820.87,120.40 821.22,120.00 C821.52,119.65 821.60,119.38 822.00,118.96 C822.79,118.12 825.07,116.03 826.00,115.60 C826.41,115.41 826.69,115.37 827.00,115.43 C827.31,115.50 827.67,115.74 827.85,116.00 C828.02,116.26 828.10,116.67 828.07,117.00 C828.03,117.34 827.76,117.51 827.62,118.00 C827.29,119.15 826.94,122.09 826.79,124.00 C826.66,125.74 826.59,127.26 826.69,129.00 C826.80,130.91 827.19,133.55 827.51,135.00 C827.70,135.86 827.96,136.33 828.13,137.00 C828.29,137.66 828.31,138.22 828.49,139.00 C828.74,140.11 829.22,142.13 829.57,143.00 C829.76,143.46 829.90,143.52 830.13,144.00 C830.69,145.15 831.68,148.12 832.62,150.00 C833.50,151.78 834.64,153.56 835.57,155.00 C836.30,156.14 836.80,156.91 837.66,158.00 C838.82,159.45 840.96,162.28 842.00,162.84 C842.42,163.07 842.71,162.95 843.06,163.00 C843.16,162.00 843.19,160.99 843.34,160.00 C843.50,159.00 843.73,157.91 844.00,157.02 C844.22,156.27 844.49,155.54 844.77,155.00 C844.98,154.60 845.23,154.39 845.43,154.00 C845.66,153.53 845.70,152.76 846.00,152.36 C846.25,152.01 846.67,151.87 847.00,151.63 L848.00,151.86 C848.22,152.57 848.40,153.43 848.66,154.00 C848.84,154.41 849.05,154.57 849.26,155.00 C849.62,155.72 850.05,157.11 850.45,158.00 C850.79,158.74 851.11,159.47 851.47,160.00 C851.74,160.41 852.05,160.59 852.33,161.00 C852.71,161.54 852.92,162.25 853.45,163.00 C854.27,164.15 855.74,165.67 857.07,167.00 C858.56,168.48 860.94,170.76 862.00,171.44 C862.43,171.71 862.63,171.63 863.00,171.86 C863.58,172.22 864.42,173.20 865.00,173.56 C865.37,173.78 865.54,173.73 866.00,173.97 C867.18,174.59 870.55,176.89 872.00,177.92 C872.86,178.53 873.44,179.08 874.00,179.45 C874.38,179.70 874.57,179.72 875.00,180.00 C875.89,180.58 877.77,182.08 878.87,183.00 C879.74,183.72 880.36,184.23 881.14,185.00 C882.06,185.91 883.27,187.48 884.00,188.16 C884.40,188.53 884.67,188.68 885.00,188.94 C886.33,187.57 887.55,186.15 889.00,184.81 C890.54,183.40 892.40,181.92 894.00,180.72 C895.39,179.68 896.89,178.69 898.00,177.96 C898.77,177.46 899.44,177.01 900.00,176.72 C900.38,176.52 900.68,176.49 901.00,176.29 C901.35,176.07 901.56,175.76 902.00,175.43 C902.72,174.90 904.11,174.12 905.00,173.49 C905.75,172.96 906.43,172.30 907.00,171.93 C907.38,171.69 907.57,171.69 908.00,171.41 C908.94,170.79 910.98,169.15 912.20,168.00 C913.25,167.01 914.09,166.02 914.93,165.00 C915.75,164.02 916.49,163.10 917.20,162.00 C917.99,160.79 919.00,158.90 919.41,158.00 C919.60,157.57 919.61,157.33 919.76,157.00 C919.91,156.66 920.16,156.41 920.33,156.00 C920.58,155.42 920.72,154.50 921.00,153.80 C921.28,153.10 921.67,152.45 922.00,151.78 C922.33,151.71 922.67,151.52 923.00,151.56 C923.34,151.60 923.71,151.74 924.00,152.04 C924.43,152.48 924.72,153.48 925.00,154.28 C925.30,155.13 925.45,156.33 925.72,157.00 C925.89,157.43 926.11,157.54 926.27,158.00 C926.59,158.87 926.56,161.19 927.02,162.00 C927.28,162.46 927.67,162.59 928.00,162.89 C929.14,161.59 930.42,160.23 931.42,159.00 C932.26,157.95 933.03,156.91 933.65,156.00 C934.14,155.28 934.43,154.66 934.87,154.00 C935.32,153.32 935.97,152.68 936.33,152.00 C936.65,151.40 936.74,150.72 937.00,150.19 C937.22,149.74 937.47,149.50 937.74,149.00 C938.15,148.24 938.68,147.08 939.12,146.00 C939.61,144.77 940.26,142.89 940.52,142.00 C940.65,141.56 940.62,141.38 940.74,141.00 C940.92,140.44 941.37,139.68 941.54,139.00 C941.71,138.34 941.65,137.66 941.77,137.00 C941.88,136.33 942.09,135.74 942.22,135.00 C942.38,134.10 942.52,133.17 942.62,132.00 C942.76,130.35 942.84,127.91 942.84,126.00 C942.84,124.26 942.82,122.57 942.65,121.00 C942.51,119.59 942.01,117.89 941.96,117.00 C941.94,116.56 942.00,116.33 942.02,116.00 L943.00,115.40 C943.33,115.50 943.68,115.56 944.00,115.72 C944.35,115.90 944.60,116.11 945.00,116.43 C945.71,117.01 946.86,118.04 947.80,119.00 C948.86,120.09 949.93,121.46 951.00,122.69 C951.24,122.46 951.53,122.41 951.71,122.00 C952.18,120.92 951.90,117.24 951.87,115.00 C951.84,112.92 951.79,110.99 951.57,109.00 C951.35,106.99 950.93,104.90 950.55,103.00 C950.21,101.25 949.80,99.02 949.42,98.00 C949.25,97.52 949.10,97.47 948.89,97.00 C948.45,95.98 947.68,93.27 947.10,92.00 C946.72,91.16 946.24,90.56 945.98,90.00 C945.80,89.62 945.77,89.32 945.59,89.00 C945.41,88.65 945.07,88.34 944.88,88.00 C944.70,87.68 944.69,87.37 944.47,87.00 C944.14,86.43 943.38,85.68 942.89,85.00 C942.41,84.34 942.02,83.53 941.58,83.00 C941.24,82.59 940.85,82.35 940.55,82.00 C940.26,81.68 940.01,81.34 939.80,81.00 C939.60,80.68 939.47,80.33 939.31,80.00 C939.47,79.67 939.62,79.18 939.77,79.00 C939.85,78.91 939.89,78.89 940.00,78.85 C940.21,78.79 940.56,78.77 941.00,78.82 C941.89,78.91 943.77,79.43 945.00,79.78 C946.08,80.09 947.27,80.49 948.00,80.78 C948.43,80.96 948.66,81.23 949.00,81.27 C949.34,81.30 949.71,81.09 950.06,81.00 C949.91,80.00 949.75,78.73 949.60,78.00 C949.52,77.58 949.49,77.33 949.37,77.00 C949.24,76.66 949.05,76.47 948.86,76.00 C948.46,74.98 948.06,72.78 947.40,71.00 C946.60,68.84 945.32,65.97 944.24,64.00 C943.39,62.44 942.52,61.22 941.64,60.00 C940.85,58.91 940.14,57.98 939.24,57.00 C938.27,55.94 937.08,54.84 936.00,53.90 C935.00,53.02 933.92,52.15 933.00,51.52 C932.28,51.02 931.74,50.75 931.00,50.33 C930.11,49.83 929.01,49.19 928.00,48.72 C927.01,48.25 925.91,47.77 925.00,47.49 C924.28,47.27 923.54,47.24 923.00,47.06 C922.60,46.93 922.43,46.74 922.00,46.61 C921.28,46.40 919.89,46.35 919.00,46.16 C918.26,46.01 917.74,45.74 917.00,45.62 C916.11,45.47 915.13,45.45 914.00,45.42 C912.55,45.38 909.95,45.74 909.00,45.49 C908.58,45.38 908.43,45.16 908.15,45.00 C908.25,44.67 908.24,44.36 908.43,44.00 C908.73,43.44 909.50,42.66 910.00,42.13 C910.41,41.69 910.69,41.41 911.18,41.00 C911.88,40.41 912.97,39.67 913.86,39.00 C913.63,38.67 913.48,38.23 913.17,38.00 C912.86,37.77 912.53,37.73 912.00,37.64 C910.92,37.45 908.57,37.40 907.00,37.43 C905.59,37.45 904.10,37.56 903.00,37.74 C902.21,37.87 901.67,38.12 901.00,38.24 C900.34,38.36 899.81,38.32 899.00,38.47 C897.70,38.70 895.71,39.10 894.00,39.71 C892.06,40.41 889.50,41.74 888.00,42.57 C887.04,43.09 886.29,43.73 885.73,44.00 C885.43,44.14 885.30,44.28 885.00,44.25 C884.49,44.20 883.54,43.48 883.00,43.13 C882.60,42.87 882.44,42.63 882.00,42.38 C881.29,41.97 879.72,41.49 879.00,41.12 C878.57,40.90 878.34,40.65 878.00,40.50 C877.68,40.36 877.33,40.37 877.00,40.24 C876.66,40.10 876.44,39.85 876.00,39.69 C875.28,39.43 873.72,39.31 873.00,39.07 C872.57,38.92 872.49,38.74 872.00,38.59 C870.85,38.22 867.66,37.74 866.00,37.57 C864.83,37.44 864.07,37.44 863.00,37.45 C861.76,37.46 859.89,37.62 859.00,37.68 C858.56,37.71 858.33,37.70 858.00,37.76 C857.66,37.81 857.29,37.82 857.00,38.00 C856.68,38.21 856.47,38.67 856.20,39.00 Z M842.00,83.37 C842.36,83.25 842.72,83.29 843.08,83.00 C843.72,82.49 844.62,80.71 845.00,79.96 C845.20,79.56 845.16,79.36 845.38,79.00 C845.71,78.43 846.53,77.68 847.04,77.00 C847.53,76.35 847.89,75.65 848.40,75.00 C848.93,74.31 849.51,73.73 850.19,73.00 C851.04,72.09 852.06,71.01 853.12,70.00 C854.30,68.88 856.10,67.20 857.00,66.58 C857.42,66.29 857.70,66.30 858.00,66.06 C858.33,65.79 858.58,65.35 858.87,65.00 C858.80,64.67 858.80,64.29 858.66,64.00 C858.51,63.71 858.28,63.51 858.00,63.24 C857.61,62.86 857.12,62.45 856.50,62.00 C855.59,61.35 854.15,60.39 853.00,59.82 C851.99,59.31 851.09,58.98 850.00,58.67 C848.78,58.32 846.89,57.98 846.00,57.91 C845.56,57.87 845.44,57.88 845.00,57.94 C844.11,58.06 842.02,58.53 841.00,58.96 C840.30,59.26 839.86,59.63 839.34,60.00 C838.86,60.35 838.40,60.74 838.00,61.13 C837.63,61.48 837.33,61.80 837.00,62.23 C836.61,62.74 836.14,63.48 835.88,64.00 C835.68,64.37 835.60,64.57 835.47,65.00 C835.24,65.73 834.92,67.10 834.81,68.00 C834.73,68.73 834.74,69.33 834.77,70.00 C834.81,70.67 834.86,71.27 835.00,72.00 C835.17,72.90 835.49,74.11 835.81,75.00 C836.07,75.75 836.36,76.47 836.70,77.00 C836.97,77.41 837.37,77.65 837.57,78.00 C837.75,78.32 837.69,78.61 837.90,79.00 C838.28,79.71 839.35,80.98 840.00,81.70 C840.48,82.23 840.96,82.71 841.34,83.00 C841.59,83.18 841.78,83.25 842.00,83.37 Z M911.28,65.00 C911.49,65.33 911.58,65.64 911.91,66.00 C912.46,66.60 913.73,67.32 914.57,68.00 C915.36,68.65 916.01,69.24 916.81,70.00 C917.80,70.93 919.02,72.14 920.00,73.18 C920.89,74.14 921.63,74.96 922.45,76.00 C923.39,77.20 924.70,78.98 925.31,80.00 C925.65,80.59 925.73,80.98 926.00,81.46 C926.29,81.96 926.61,82.63 927.00,82.95 C927.30,83.20 927.67,83.24 928.00,83.39 C928.25,83.26 928.48,83.19 928.75,83.00 C929.13,82.72 929.55,82.28 930.00,81.76 C930.63,81.04 931.51,79.86 932.09,79.00 C932.56,78.29 933.04,77.57 933.28,77.00 C933.44,76.62 933.40,76.32 933.55,76.00 C933.71,75.65 934.02,75.44 934.24,75.00 C934.59,74.29 935.00,73.01 935.17,72.00 C935.34,71.01 935.31,69.90 935.29,69.00 C935.28,68.27 935.29,67.72 935.15,67.00 C934.96,66.09 934.50,64.71 934.13,64.00 C933.89,63.55 933.58,63.33 933.38,63.00 C933.21,62.71 933.20,62.42 933.00,62.13 C932.75,61.75 932.28,61.36 931.90,61.00 C931.52,60.65 931.18,60.31 930.73,60.00 C930.21,59.64 929.45,59.25 928.94,59.00 C928.58,58.83 928.41,58.74 928.00,58.61 C927.29,58.38 925.74,58.02 925.00,57.93 C924.58,57.88 924.44,57.87 924.00,57.91 C923.11,57.99 921.22,58.36 920.00,58.73 C918.91,59.05 918.04,59.39 917.00,59.93 C915.73,60.59 913.95,61.73 913.00,62.52 C912.38,63.04 911.91,63.53 911.62,64.00 C911.42,64.34 911.40,64.67 911.28,65.00 Z M842.00,79.62 C842.20,79.41 842.45,79.25 842.61,79.00 C842.79,78.73 842.79,78.44 843.00,78.05 C843.39,77.31 844.32,75.89 844.97,75.00 C845.52,74.25 846.01,73.65 846.61,73.00 C847.24,72.31 848.20,71.57 848.70,71.00 C849.02,70.63 849.18,70.33 849.42,70.00 C849.28,69.88 849.18,69.74 849.00,69.65 C848.75,69.52 848.39,69.46 848.00,69.40 C847.45,69.32 846.46,69.43 846.00,69.30 C845.74,69.23 845.56,69.17 845.42,69.00 C845.24,68.78 845.23,68.33 845.13,68.00 C845.42,67.67 845.66,67.22 846.00,67.02 C846.30,66.84 846.66,66.82 847.00,66.80 C847.33,66.77 847.58,66.79 848.00,66.85 C848.74,66.96 850.27,67.55 851.00,67.57 C851.42,67.59 851.61,67.58 852.00,67.40 C852.75,67.06 853.93,65.80 854.90,65.00 C854.78,64.67 854.84,64.35 854.54,64.00 C853.89,63.22 851.40,61.92 850.00,61.40 C848.93,61.00 847.90,60.91 847.00,60.81 C846.27,60.73 845.55,60.75 845.00,60.78 C844.61,60.79 844.39,60.81 844.00,60.88 C843.44,60.98 842.64,61.09 842.00,61.39 C841.30,61.71 840.60,62.24 840.00,62.82 C839.36,63.43 838.70,64.40 838.30,65.00 C838.05,65.39 837.89,65.66 837.74,66.00 C837.60,66.33 837.49,66.57 837.42,67.00 C837.31,67.73 837.35,69.10 837.38,70.00 C837.40,70.73 837.34,71.20 837.54,72.00 C837.89,73.31 839.05,75.74 839.80,77.00 C840.31,77.85 840.89,78.54 841.31,79.00 C841.57,79.28 841.77,79.41 842.00,79.62 Z M915.07,65.00 C916.05,65.79 917.24,67.04 918.00,67.36 C918.39,67.52 918.56,67.48 919.00,67.48 C919.89,67.46 922.11,66.87 923.00,66.86 C923.44,66.85 923.68,66.87 924.00,66.99 C924.35,67.12 924.80,67.47 925.00,67.68 C925.11,67.79 925.14,67.89 925.20,68.00 L924.88,69.00 C924.59,69.12 924.36,69.28 924.00,69.35 C923.47,69.45 922.55,69.30 922.00,69.37 C921.61,69.41 921.25,69.47 921.00,69.60 C920.81,69.70 920.72,69.87 920.58,70.00 C922.05,71.69 924.27,74.01 925.00,75.06 C925.29,75.47 925.28,75.64 925.52,76.00 C925.90,76.56 926.73,77.40 927.17,78.00 C927.51,78.46 927.72,78.85 928.00,79.27 C928.45,78.85 928.94,78.50 929.36,78.00 C929.83,77.43 930.29,76.68 930.66,76.00 C931.01,75.35 931.27,74.74 931.55,74.00 C931.88,73.11 932.28,71.74 932.43,71.00 C932.52,70.58 932.54,70.39 932.56,70.00 C932.59,69.45 932.58,68.55 932.53,68.00 C932.50,67.61 932.46,67.39 932.36,67.00 C932.21,66.44 931.90,65.53 931.63,65.00 C931.44,64.62 931.24,64.39 931.00,64.07 C930.71,63.70 930.37,63.24 930.00,62.90 C929.64,62.56 929.18,62.26 928.82,62.00 C928.53,61.78 928.35,61.58 928.00,61.42 C927.49,61.19 926.55,61.03 926.00,60.92 C925.61,60.83 925.33,60.77 925.00,60.75 C924.67,60.73 924.33,60.77 924.00,60.79 C923.67,60.81 923.42,60.81 923.00,60.87 C922.27,60.97 920.71,61.15 920.00,61.43 C919.55,61.62 919.35,61.93 919.00,62.10 C918.68,62.25 918.32,62.24 918.00,62.42 C917.65,62.61 917.34,63.00 917.00,63.23 C916.68,63.45 916.30,63.52 916.00,63.78 C915.65,64.08 915.38,64.59 915.07,65.00 Z M866.00,67.78 C865.44,67.99 864.62,68.44 864.00,68.82 C863.42,69.18 863.02,69.50 862.40,70.00 C861.46,70.75 859.97,72.08 859.00,72.99 C858.23,73.71 857.80,74.13 857.00,75.00 C855.64,76.45 852.57,79.81 851.75,81.00 C851.45,81.45 851.48,81.62 851.23,82.00 C850.87,82.57 850.23,83.16 849.67,84.00 C848.81,85.27 847.47,87.38 846.82,89.00 C846.26,90.37 845.98,91.89 845.78,93.00 C845.65,93.77 845.64,94.22 845.60,95.00 C845.54,96.10 845.51,97.59 845.53,99.00 C845.56,100.57 845.55,102.44 845.77,104.00 C845.97,105.42 846.30,106.79 846.71,108.00 C847.07,109.06 847.51,109.92 848.00,110.89 C848.52,111.92 849.23,113.27 849.74,114.00 C850.05,114.45 850.30,114.60 850.60,115.00 C850.99,115.54 851.35,116.35 851.82,117.00 C852.31,117.69 853.12,118.45 853.50,119.00 C853.74,119.34 853.75,119.50 854.00,119.88 C854.48,120.61 855.63,121.87 856.38,123.00 C857.18,124.23 858.14,125.87 858.62,127.00 C858.94,127.76 859.12,128.21 859.22,129.00 C859.35,130.10 859.00,131.76 859.02,133.00 C859.04,134.07 859.13,134.98 859.29,136.00 C859.45,137.09 859.71,138.44 860.00,139.35 C860.21,140.01 860.43,140.54 860.72,141.00 C860.97,141.40 861.37,141.65 861.59,142.00 C861.78,142.30 861.82,142.63 862.00,142.94 C862.21,143.30 862.46,143.61 862.82,144.00 C863.35,144.59 864.28,145.54 865.00,146.06 C865.58,146.48 866.23,146.65 866.73,147.00 C867.17,147.31 867.65,147.55 867.88,148.00 C868.15,148.51 867.98,149.27 868.09,150.00 C868.23,150.90 868.42,152.12 868.72,153.00 C868.98,153.75 869.39,154.46 869.71,155.00 C869.96,155.40 870.17,155.67 870.43,156.00 C870.71,156.34 870.99,156.66 871.35,157.00 C871.81,157.41 872.47,157.90 873.00,158.25 C873.45,158.55 873.73,158.74 874.29,159.00 C875.19,159.42 876.94,160.06 878.00,160.31 C878.76,160.50 879.34,160.45 880.00,160.58 C880.67,160.72 881.26,161.01 882.00,161.13 C882.89,161.28 884.00,161.32 885.00,161.33 C886.00,161.33 887.01,161.33 888.00,161.18 C889.01,161.04 890.26,160.57 891.00,160.44 C891.42,160.37 891.58,160.44 892.00,160.35 C892.74,160.19 894.11,159.71 895.00,159.33 C895.75,159.00 896.39,158.66 897.00,158.26 C897.58,157.88 898.15,157.41 898.60,157.00 C898.96,156.66 899.22,156.34 899.51,156.00 C899.79,155.67 900.06,155.41 900.31,155.00 C900.63,154.46 900.97,153.75 901.18,153.00 C901.44,152.12 901.43,150.89 901.61,150.00 C901.77,149.26 901.87,148.50 902.16,148.00 C902.38,147.62 902.64,147.43 903.00,147.14 C903.50,146.76 904.36,146.47 905.00,146.00 C905.69,145.51 906.45,144.78 907.00,144.23 C907.44,143.79 907.75,143.48 908.10,143.00 C908.52,142.43 909.06,141.57 909.29,141.00 C909.45,140.62 909.40,140.32 909.53,140.00 C909.67,139.66 909.94,139.46 910.12,139.00 C910.46,138.15 910.85,136.09 911.00,135.18 C911.08,134.67 911.11,134.48 911.13,134.00 C911.16,133.23 911.17,131.90 911.08,131.00 C911.00,130.26 910.65,129.73 910.70,129.00 C910.77,128.09 911.28,126.98 911.74,126.00 C912.22,124.97 912.84,124.09 913.58,123.00 C914.52,121.62 915.90,119.96 917.00,118.44 C918.07,116.96 919.57,114.97 920.08,114.00 C920.31,113.57 920.27,113.32 920.46,113.00 C920.66,112.65 921.03,112.38 921.27,112.00 C921.55,111.57 921.74,111.13 922.00,110.52 C922.40,109.61 922.98,108.14 923.35,107.00 C923.69,105.97 924.01,105.08 924.18,104.00 C924.38,102.77 924.37,101.33 924.40,100.00 C924.43,98.67 924.40,97.24 924.36,96.00 C924.32,94.93 924.28,93.67 924.18,93.00 C924.13,92.66 924.09,92.57 924.00,92.23 C923.81,91.52 923.39,89.98 923.03,89.00 C922.71,88.15 922.44,87.48 922.00,86.66 C921.47,85.66 920.76,84.56 920.00,83.46 C919.13,82.21 917.97,80.71 917.00,79.57 C916.18,78.60 915.14,77.66 914.62,77.00 C914.32,76.62 914.31,76.45 914.00,76.06 C913.40,75.31 911.75,73.61 911.00,72.96 C910.60,72.61 910.39,72.57 910.00,72.24 C909.37,71.72 908.38,70.62 907.65,70.00 C907.06,69.51 906.59,69.13 906.00,68.76 C905.38,68.38 904.75,68.02 904.00,67.76 C903.12,67.46 901.73,67.23 901.00,67.16 C900.58,67.13 900.39,67.17 900.00,67.19 C899.45,67.21 898.71,67.23 898.00,67.35 C897.15,67.48 896.34,67.62 895.27,68.00 C893.58,68.59 890.48,70.08 889.00,70.94 C888.12,71.45 887.69,71.99 887.00,72.36 C886.35,72.71 885.67,73.14 885.00,73.15 C884.33,73.15 883.65,72.71 883.00,72.37 C882.31,72.00 881.88,71.49 881.00,70.98 C879.50,70.12 876.32,68.60 874.63,68.00 C873.59,67.63 872.67,67.46 872.00,67.35 C871.59,67.28 871.39,67.28 871.00,67.27 C870.45,67.24 869.66,67.21 869.00,67.26 C868.33,67.30 867.55,67.44 867.00,67.55 C866.61,67.62 866.38,67.64 866.00,67.78 Z M861.00,124.89 C861.18,124.59 861.42,124.32 861.55,124.00 C861.69,123.69 861.64,123.31 861.81,123.00 C862.00,122.64 862.50,122.20 862.73,122.00 C862.84,121.90 862.87,121.84 863.00,121.79 C863.22,121.71 863.74,121.68 864.00,121.74 C864.19,121.79 864.33,121.85 864.44,122.00 C864.60,122.21 864.74,122.62 864.70,123.00 C864.64,123.56 864.03,124.26 863.70,125.00 C863.29,125.89 862.76,127.09 862.48,128.00 C862.26,128.72 862.22,129.45 862.05,130.00 C861.94,130.40 861.76,130.60 861.66,131.00 C861.54,131.54 861.51,132.33 861.49,133.00 C861.47,133.67 861.43,134.27 861.53,135.00 C861.65,135.91 861.94,137.02 862.30,138.00 C862.67,139.02 863.22,140.21 863.74,141.00 C864.14,141.60 864.51,141.98 865.00,142.46 C865.57,143.00 866.43,143.67 867.00,144.06 C867.38,144.31 867.60,144.46 868.00,144.63 C868.54,144.84 869.33,145.07 870.00,145.12 C870.66,145.18 871.27,145.05 872.00,144.96 C872.90,144.85 873.89,144.76 875.00,144.44 C876.48,144.00 878.98,142.82 880.00,142.31 C880.47,142.07 880.67,141.92 881.00,141.71 C881.34,141.50 881.67,141.30 882.00,141.03 C882.36,140.74 882.81,140.37 883.06,140.00 C883.27,139.68 883.37,139.43 883.46,139.00 C883.61,138.28 883.73,136.68 883.55,136.00 C883.44,135.60 883.28,135.43 883.00,135.12 C882.57,134.64 881.53,134.07 881.00,133.57 C880.59,133.18 880.30,132.91 880.00,132.43 C879.60,131.80 879.48,130.64 878.96,130.00 C878.47,129.39 877.66,128.95 877.00,128.61 C876.41,128.31 875.77,128.27 875.22,128.00 C874.69,127.73 874.14,127.35 873.75,127.00 C873.44,126.72 873.26,126.52 873.00,126.15 C872.62,125.61 872.00,124.60 871.80,124.00 C871.67,123.62 871.63,123.31 871.66,123.00 C871.70,122.70 871.89,122.44 872.00,122.16 C872.33,122.05 872.67,121.83 873.00,121.85 C873.34,121.87 873.67,122.14 874.00,122.28 C874.33,122.03 874.66,121.73 875.00,121.51 C875.32,121.31 875.60,121.15 876.00,121.02 C876.54,120.84 877.33,120.73 878.00,120.70 C878.66,120.67 879.27,120.72 880.00,120.84 C880.91,121.00 882.09,121.50 883.00,121.66 C883.73,121.78 884.33,121.80 885.00,121.81 C885.67,121.82 886.32,121.84 887.00,121.72 C887.75,121.59 888.52,121.16 889.33,121.00 C890.18,120.83 891.23,120.71 892.00,120.74 C892.59,120.76 892.99,120.85 893.56,121.00 C894.29,121.20 895.30,121.78 896.00,121.93 C896.50,122.03 896.97,121.85 897.31,122.00 C897.61,122.13 897.87,122.49 898.00,122.69 C898.07,122.80 898.10,122.86 898.12,123.00 C898.15,123.24 898.09,123.67 898.00,124.00 C897.90,124.34 897.76,124.62 897.54,125.00 C897.21,125.57 896.65,126.48 896.13,127.00 C895.68,127.44 895.27,127.64 894.65,128.00 C893.72,128.55 891.67,129.02 891.00,129.84 C890.50,130.45 890.67,131.43 890.41,132.00 C890.21,132.42 890.07,132.64 889.72,133.00 C889.12,133.60 887.37,134.38 886.84,135.00 C886.54,135.35 886.44,135.56 886.35,136.00 C886.21,136.72 886.30,138.28 886.49,139.00 C886.61,139.44 886.77,139.69 887.01,140.00 C887.29,140.36 887.76,140.71 888.11,141.00 C888.42,141.25 888.63,141.42 889.00,141.64 C889.52,141.96 890.26,142.32 891.00,142.65 C891.89,143.05 893.28,143.48 894.00,143.83 C894.43,144.04 894.56,144.25 895.00,144.41 C895.72,144.67 897.10,144.82 898.00,144.92 C898.73,145.00 899.45,145.02 900.00,145.01 C900.39,145.00 900.67,144.98 901.00,144.92 C901.34,144.85 901.62,144.78 902.00,144.61 C902.57,144.34 903.35,143.88 904.00,143.34 C904.75,142.72 905.59,141.78 906.16,141.00 C906.65,140.34 907.06,139.56 907.30,139.00 C907.46,138.62 907.49,138.45 907.59,138.00 C907.80,137.12 908.20,135.11 908.26,134.00 C908.31,133.22 908.23,132.73 908.16,132.00 C908.07,131.10 907.89,129.89 907.72,129.00 C907.57,128.26 907.48,127.77 907.21,127.00 C906.82,125.88 905.47,123.90 905.36,123.00 C905.31,122.57 905.43,122.21 905.57,122.00 C905.68,121.85 905.82,121.80 906.00,121.75 C906.26,121.67 906.67,121.72 907.00,121.71 C907.40,122.14 907.95,122.57 908.21,123.00 C908.41,123.33 908.40,123.71 908.55,124.00 C908.67,124.24 908.85,124.42 909.00,124.63 C909.25,124.42 909.43,124.35 909.75,124.00 C910.61,123.05 912.73,119.45 913.81,118.00 C914.46,117.13 915.08,116.57 915.47,116.00 C915.72,115.62 915.75,115.38 916.00,115.00 C916.37,114.43 917.02,113.85 917.57,113.00 C918.40,111.74 919.58,109.71 920.23,108.00 C920.85,106.37 921.24,104.30 921.47,103.00 C921.61,102.19 921.62,101.78 921.66,101.00 C921.72,99.90 921.75,98.24 921.71,97.00 C921.68,95.93 921.68,95.12 921.50,94.00 C921.26,92.54 920.78,90.42 920.19,89.00 C919.71,87.84 919.01,86.89 918.45,86.00 C917.97,85.26 917.59,84.73 917.06,84.00 C916.40,83.09 915.49,81.89 914.76,81.00 C914.14,80.25 913.43,79.57 913.00,79.00 C912.71,78.62 912.68,78.41 912.34,78.00 C911.68,77.19 910.20,75.74 909.00,74.67 C907.76,73.56 906.13,72.24 905.00,71.48 C904.24,70.97 903.68,70.67 903.00,70.36 C902.35,70.06 901.56,69.75 901.00,69.65 C900.62,69.57 900.33,69.60 900.00,69.61 C899.67,69.63 899.33,69.63 899.00,69.72 C898.66,69.80 898.40,69.99 898.00,70.12 C897.45,70.30 896.77,70.37 896.00,70.62 C894.88,71.00 893.39,71.64 892.00,72.34 C890.40,73.14 888.30,74.54 887.00,75.23 C886.19,75.65 885.67,76.15 885.00,76.17 C884.34,76.19 883.54,75.65 883.00,75.34 C882.59,75.11 882.35,74.77 882.00,74.58 C881.68,74.41 881.43,74.44 881.00,74.23 C880.10,73.81 878.37,72.46 877.00,71.80 C875.70,71.18 874.11,70.69 873.00,70.33 C872.22,70.08 871.56,69.87 871.00,69.76 C870.61,69.68 870.33,69.64 870.00,69.63 C869.67,69.62 869.33,69.63 869.00,69.72 C868.66,69.81 868.34,70.05 868.00,70.16 C867.67,70.27 867.38,70.25 867.00,70.39 C866.44,70.61 865.71,70.99 865.00,71.46 C864.07,72.07 863.05,72.94 862.00,73.89 C860.71,75.05 859.27,76.54 857.91,78.00 C856.45,79.56 854.50,81.67 853.54,83.00 C852.96,83.79 852.72,84.46 852.34,85.00 C852.05,85.40 851.81,85.53 851.50,86.00 C850.91,86.87 849.75,89.10 849.41,90.00 C849.25,90.43 849.31,90.68 849.18,91.00 C849.05,91.34 848.77,91.66 848.64,92.00 C848.51,92.32 848.48,92.55 848.41,93.00 C848.28,93.89 848.18,95.76 848.13,97.00 C848.09,98.07 848.08,98.93 848.12,100.00 C848.16,101.24 848.28,103.11 848.41,104.00 C848.47,104.45 848.48,104.55 848.62,105.00 C848.92,106.04 849.92,108.72 850.51,110.00 C850.89,110.83 851.20,111.35 851.62,112.00 C852.05,112.68 852.74,113.43 853.08,114.00 C853.31,114.38 853.34,114.68 853.56,115.00 C853.81,115.35 854.12,115.52 854.53,116.00 C855.39,117.01 857.59,119.95 858.24,121.00 C858.51,121.44 858.52,121.63 858.74,122.00 C859.06,122.51 859.59,123.23 860.00,123.75 C860.34,124.18 860.67,124.51 861.00,124.89 Z M858.00,92.77 C857.67,93.03 857.21,93.30 857.00,93.55 C856.87,93.70 856.78,93.81 856.75,94.00 C856.71,94.26 856.81,94.68 856.96,95.00 C857.13,95.36 857.47,95.67 857.78,96.00 C858.13,96.37 858.58,96.76 859.00,97.10 C859.42,97.43 859.77,97.70 860.29,98.00 C861.02,98.42 862.05,98.97 863.00,99.25 C863.95,99.54 865.00,99.63 866.00,99.70 C867.00,99.77 868.27,99.63 869.00,99.67 C869.42,99.70 869.67,99.72 870.00,99.80 C870.34,99.89 870.69,99.99 871.00,100.18 C871.33,100.38 871.67,100.69 871.92,101.00 C872.17,101.30 872.41,101.65 872.51,102.00 C872.60,102.32 872.43,102.70 872.52,103.00 C872.60,103.29 872.84,103.53 873.00,103.80 L874.00,103.95 C874.23,103.63 874.59,103.40 874.70,103.00 C874.86,102.48 874.66,101.55 874.57,101.00 C874.51,100.61 874.46,100.32 874.33,100.00 C874.20,99.66 874.02,99.31 873.76,99.00 C873.45,98.64 873.02,98.27 872.57,98.00 C872.10,97.71 871.57,97.49 871.00,97.34 C870.38,97.17 869.67,97.10 869.00,97.07 C868.33,97.03 867.67,97.14 867.00,97.12 C866.33,97.10 865.66,97.03 865.00,96.93 C864.33,96.83 863.65,96.77 863.00,96.52 C862.31,96.27 861.69,95.88 861.00,95.39 C860.13,94.77 858.69,93.37 858.26,93.00 C858.13,92.88 858.09,92.85 858.00,92.77 Z M912.00,92.77 C911.52,93.18 911.03,93.55 910.55,94.00 C910.03,94.48 909.59,95.17 909.00,95.59 C908.41,96.02 907.56,96.34 907.00,96.55 C906.62,96.69 906.48,96.74 906.00,96.82 C904.85,97.00 901.16,96.99 900.00,97.13 C899.52,97.19 899.36,97.21 899.00,97.32 C898.53,97.47 897.89,97.71 897.44,98.00 C897.02,98.27 896.66,98.65 896.35,99.00 C896.08,99.32 895.87,99.59 895.68,100.00 C895.44,100.54 895.22,101.44 895.15,102.00 C895.10,102.39 895.05,102.69 895.17,103.00 C895.31,103.34 895.72,103.61 896.00,103.91 L897.00,103.84 C897.19,103.56 897.46,103.31 897.56,103.00 C897.66,102.69 897.49,102.32 897.58,102.00 C897.69,101.65 897.96,101.30 898.20,101.00 C898.43,100.70 898.70,100.43 899.00,100.21 C899.30,99.98 899.53,99.78 900.00,99.66 C900.87,99.42 902.76,99.64 904.00,99.56 C905.07,99.49 906.12,99.47 907.00,99.25 C907.75,99.06 908.35,98.75 909.00,98.42 C909.68,98.08 910.35,97.75 911.00,97.23 C911.75,96.64 912.77,95.64 913.17,95.00 C913.40,94.63 913.40,94.33 913.52,94.00 C913.34,93.75 913.17,93.41 913.00,93.24 C912.88,93.12 912.78,93.07 912.64,93.00 C912.46,92.91 912.21,92.85 912.00,92.77 Z M875.35,125.00 C875.57,125.21 875.66,125.42 876.00,125.63 C876.70,126.07 878.79,126.55 879.70,127.00 C880.26,127.28 880.63,127.38 881.00,127.83 C881.54,128.50 881.74,130.26 882.17,131.00 C882.43,131.46 882.69,131.72 883.00,132.01 C883.30,132.29 883.65,132.55 884.00,132.71 C884.32,132.87 884.67,133.01 885.00,133.01 C885.33,133.00 885.68,132.83 886.00,132.68 C886.34,132.52 886.68,132.31 887.00,132.05 C887.36,131.76 887.80,131.37 888.05,131.00 C888.26,130.68 888.39,130.34 888.47,130.00 C888.55,129.67 888.47,129.33 888.56,129.00 C888.64,128.66 888.76,128.30 889.00,128.00 C889.30,127.62 889.85,127.26 890.34,127.00 C890.84,126.73 891.43,126.69 892.00,126.44 C892.65,126.15 893.61,125.59 894.00,125.32 C894.18,125.19 894.24,125.11 894.35,125.00 L894.23,124.00 C893.82,123.79 893.47,123.51 893.00,123.38 C892.43,123.24 891.55,123.27 891.00,123.29 C890.61,123.31 890.38,123.31 890.00,123.41 C889.44,123.55 888.75,124.02 888.00,124.18 C887.11,124.38 886.00,124.38 885.00,124.38 C884.00,124.38 882.89,124.39 882.00,124.20 C881.25,124.05 880.75,123.61 880.00,123.47 C879.11,123.30 877.72,123.26 877.00,123.38 C876.57,123.45 876.22,123.63 876.00,123.76 C875.88,123.84 875.82,123.88 875.74,124.00 C875.60,124.21 875.48,124.67 875.35,125.00 Z M871.02,148.00 C871.01,148.33 870.97,148.61 870.99,149.00 C871.02,149.55 871.14,150.34 871.28,151.00 C871.41,151.67 871.58,152.46 871.79,153.00 C871.95,153.40 872.06,153.65 872.32,154.00 C872.70,154.51 873.32,155.16 874.00,155.67 C874.82,156.29 875.90,156.89 877.00,157.32 C878.21,157.79 879.76,158.09 881.00,158.31 C882.06,158.49 883.00,158.56 884.00,158.60 C885.00,158.64 886.00,158.62 887.00,158.54 C888.00,158.46 889.00,158.33 890.00,158.14 C891.00,157.96 892.29,157.75 893.00,157.43 C893.45,157.22 893.65,156.89 894.00,156.70 C894.32,156.53 894.67,156.49 895.00,156.33 C895.34,156.16 895.64,156.00 896.00,155.71 C896.51,155.31 897.28,154.52 897.69,154.00 C897.97,153.64 898.11,153.44 898.31,153.00 C898.63,152.28 899.07,150.91 899.23,150.00 C899.36,149.27 899.29,148.67 899.32,148.00 C899.22,147.89 899.15,147.77 899.00,147.68 C898.77,147.55 898.39,147.47 898.00,147.40 C897.45,147.31 896.77,147.39 896.00,147.25 C894.89,147.05 893.31,146.58 892.00,146.08 C890.65,145.57 889.22,144.86 888.00,144.19 C886.91,143.59 886.00,142.92 885.00,142.29 C884.67,142.46 884.38,142.57 884.00,142.80 C883.44,143.14 882.57,143.90 882.00,144.18 C881.62,144.37 881.32,144.34 881.00,144.51 C880.65,144.69 880.41,145.04 880.00,145.28 C879.46,145.59 878.79,145.82 878.00,146.10 C876.90,146.50 875.11,147.14 874.00,147.33 C873.23,147.46 872.53,147.26 872.00,147.42 C871.60,147.54 871.35,147.81 871.02,148.00 Z" fill="currentColor" fill-rule="evenodd"/>
</svg>
